<svg version="1.1" id="Layer_1" xmlns="http://www.w3.org/2000/svg" xmlns:xlink="http://www.w3.org/1999/xlink" x="0px" y="0px"
	 width="100%" viewBox="0 0 478 398" enable-background="new 0 0 478 398" xml:space="preserve">
<path fill="#020202" opacity="1.000000" stroke="none"
	d="
M402.085175,176.092926
	C400.752930,177.365692 399.420715,178.638443 398.455872,179.560181
	C399.601288,182.551086 400.686981,185.386108 401.847382,188.970245
	C401.689972,191.759857 401.102478,193.836899 401.307739,195.832382
	C401.628326,198.949081 402.485992,202.010513 403.116119,205.095367
	C402.454163,206.184052 401.792206,207.272720 400.611908,208.702606
	C394.951385,210.361908 396.282166,214.575974 396.046722,218.089340
	C397.264740,221.970856 394.202118,223.817490 391.601196,226.516052
	C387.468475,226.229065 386.806305,228.274368 387.010834,231.129196
	C386.029510,231.187256 385.048218,231.245316 383.277771,231.216476
	C378.847137,230.505646 377.589081,232.304337 377.873138,235.670471
	C376.193024,235.737305 374.512939,235.804138 372.150696,235.648651
	C367.659271,235.861038 363.428192,233.443451 359.903320,237.373123
	C356.850006,235.880219 355.790619,237.680542 355.004059,240.019989
	C352.327850,240.076248 349.651611,240.132507 346.146729,240.179306
	C344.248779,240.212494 343.179565,240.255157 341.873718,240.209885
	C341.468994,240.114288 341.300903,240.106628 340.658112,240.048157
	C337.029449,240.012177 333.872986,239.952499 330.722076,240.058182
	C325.151459,240.245041 319.584167,240.532547 313.552551,240.871643
	C305.732330,240.994843 298.375031,241.024292 290.773499,240.757584
	C289.042053,240.996140 286.422974,241.302292 286.260956,242.104614
	C285.501190,245.867188 288.711029,244.749451 290.800781,245.147247
	C290.916260,245.197250 291.062164,244.992203 291.062164,244.992203
	C291.050140,248.987900 291.038147,252.983582 291.019562,257.837494
	C290.608429,262.610809 292.396759,265.325287 295.680664,267.220917
	C295.679321,274.098511 295.677979,280.976105 295.288818,288.390259
	C294.226166,293.249847 293.551300,297.572906 292.558746,302.131836
	C291.876007,305.257172 291.510925,308.146637 291.145844,311.036133
	C291.093719,313.703827 291.041595,316.371552 290.534424,319.546356
	C285.635071,319.485992 286.113586,322.473999 286.316803,325.263153
	C286.031708,328.750916 287.437439,332.562866 283.167053,335.110809
	C281.993347,335.811096 282.299042,338.990814 281.488892,341.519348
	C276.758575,341.500610 276.927246,344.268158 277.269348,347.162903
	C276.526917,348.718201 276.150726,350.670654 274.974365,351.755341
	C271.245026,355.194244 268.591827,360.195740 262.050232,360.788818
	C260.588562,361.688049 259.825836,362.586029 259.063110,363.484009
	C258.056580,363.723267 257.050079,363.962494 255.214874,364.096161
	C250.909637,363.602203 249.269211,365.014587 249.855286,368.610535
	C242.576675,368.681213 235.298080,368.751892 227.538513,368.351715
	C227.366180,363.683899 224.624588,363.838013 221.760208,364.167297
	C219.536804,363.453094 217.122528,363.076843 215.131119,361.951935
	C211.382721,359.834473 207.823624,357.360779 204.330429,354.835175
	C203.797501,354.449829 204.038864,352.993561 203.927231,351.208740
	C204.475739,346.544006 201.801956,346.912018 199.401871,346.921967
	C199.310699,345.553925 199.219528,344.185883 199.331528,342.261597
	C199.376160,340.808929 199.217621,339.912506 199.105469,338.562897
	C199.083115,335.077209 199.014374,332.044739 199.230835,328.778076
	C200.746689,325.335144 199.623688,323.811615 196.170685,323.578766
	C195.788605,322.481720 195.446640,321.733582 195.104691,320.985443
	C195.009521,316.669617 194.914352,312.353760 194.885651,307.146881
	C194.362885,302.724609 196.542847,298.398956 192.009750,295.999115
	C191.359436,292.635010 190.709122,289.270935 190.028992,285.137543
	C188.687866,283.243927 187.376526,282.119568 186.065170,280.995239
	C185.868530,279.499603 185.671890,278.003937 185.338745,275.758209
	C184.546082,272.772278 185.937225,269.511902 181.954620,268.500061
	C181.403397,266.349243 181.021118,264.554504 180.602554,262.589355
	C179.209808,262.295593 177.690720,261.975159 176.171616,261.654755
	C176.211426,260.673492 176.251251,259.692200 176.322723,258.054688
	C177.323257,253.444809 174.446793,253.395370 171.900040,253.011154
	C171.188995,251.107834 170.607819,249.142258 169.733170,247.317337
	C168.701050,245.163849 167.415115,243.132019 166.485825,241.484589
	C164.712616,239.852127 163.121307,238.387115 161.529999,236.922119
	C161.761063,236.630051 161.992126,236.337997 162.223190,236.045944
	C160.952286,235.901733 159.681366,235.757523 158.410446,235.613312
	C158.650757,235.325974 158.891068,235.038651 159.131378,234.751328
	C157.622375,233.210815 156.113388,231.670319 154.604385,230.129822
	C154.577881,229.938095 154.551361,229.746368 154.524841,229.554626
	C153.009003,228.684525 151.493164,227.814423 149.508041,226.504395
	C149.272873,222.084503 147.126587,221.686462 144.021942,222.730515
	C141.888977,222.407257 140.340057,221.861450 139.518829,225.248978
	C138.965317,227.532349 135.650406,229.193237 133.476334,231.020172
	C132.056229,232.213531 130.466949,233.205566 128.953461,234.287796
	C129.195099,234.625793 129.436737,234.963776 129.678375,235.301758
	C126.869972,235.942657 124.061569,236.583542 120.749603,237.275497
	C117.510544,238.050415 113.637421,234.573776 112.052444,239.545670
	C108.606880,239.728699 105.161324,239.911728 101.212494,239.489380
	C94.077583,235.910461 87.344467,233.688446 79.987610,236.086380
	C77.325691,235.997681 74.663765,235.908997 71.533318,235.356354
	C71.340538,230.607468 68.449013,231.030426 65.680717,231.270203
	C64.341003,231.252777 63.001293,231.235352 61.276623,230.693878
	C60.014721,229.745300 59.137779,229.320770 58.260834,228.896225
	C56.510399,227.996292 54.759956,227.096375 52.736202,226.055923
	C51.825371,225.036850 50.532814,223.590683 49.240253,222.144516
	C48.822495,222.360855 48.404736,222.577209 47.986977,222.793549
	C47.986977,221.532196 47.986977,220.270828 47.948898,218.183197
	C48.479313,213.699478 45.885124,213.958832 43.580151,213.860016
	C43.482395,212.494507 43.384644,211.129013 43.555977,209.076996
	C43.056293,205.372681 46.850391,200.333160 40.093479,199.968582
	C39.699326,195.969925 39.305172,191.971252 38.911896,187.131180
	C38.872005,185.212067 38.831238,184.134384 38.862865,182.610291
	C38.885601,179.464325 38.835941,176.764771 38.854164,173.677856
	C37.988846,171.171371 37.055649,169.052231 36.122452,166.933105
	C36.122448,166.933105 35.999142,166.479523 36.284504,166.070648
	C37.431118,163.307220 37.181885,161.480927 34.306595,160.903793
	C34.266003,147.607895 34.225410,134.312012 34.575302,120.534500
	C35.345215,118.709381 35.724648,117.365875 36.104080,116.022362
	C36.068195,115.267403 36.032307,114.512444 36.343994,113.237595
	C37.380310,109.438896 38.069050,106.160080 38.757786,102.881271
	C38.901989,98.383636 39.046188,93.885994 39.880684,88.996521
	C43.763660,88.940849 44.304741,87.598885 42.854439,84.996613
	C43.014343,82.701874 43.174248,80.407127 43.710411,77.529152
	C45.319138,76.599525 46.551594,76.253128 47.830845,75.893585
	C47.830845,74.470680 47.830845,73.168655 47.830845,71.866631
	C49.149727,69.155464 50.468609,66.444305 52.358604,63.350430
	C55.860138,61.306782 58.790558,59.645847 61.875893,57.897106
	C61.947094,56.705322 62.024082,55.416721 62.101070,54.128113
	C63.656643,53.671947 65.212219,53.215778 67.259094,52.421494
	C68.631676,51.312134 69.512947,50.540890 70.394226,49.769646
	C71.767975,49.717247 73.141716,49.664845 75.184937,49.639233
	C77.123764,49.630901 78.393112,49.595783 80.058899,49.636208
	C84.052437,50.417500 85.065689,48.393635 85.089760,45.324791
	C92.387421,45.286701 99.685081,45.248611 107.401138,45.595398
	C108.492455,46.674946 109.165359,47.369617 110.096146,48.365490
	C115.315186,48.956806 120.276360,49.246925 125.237526,49.537041
	C126.567474,49.596260 127.897423,49.655479 129.648834,50.144791
	C131.010727,51.084187 131.951172,51.593491 132.891617,52.102791
	C136.659012,55.257519 140.656845,54.608669 145.311676,52.438175
	C148.197281,51.026852 150.494934,49.996941 153.317291,48.731834
	C153.487762,47.961132 153.802002,46.540501 154.116241,45.119873
	C155.884308,44.432030 159.182007,46.785160 159.177780,42.573895
	C160.356171,42.609604 161.534576,42.645313 163.235748,42.425804
	C164.170456,41.857853 164.582397,41.545116 164.994339,41.232376
	C166.653564,41.082729 168.312790,40.933079 170.800751,40.885071
	C175.444580,41.223763 178.455566,39.961639 180.221558,36.378281
	C181.572495,36.350849 182.923447,36.323414 184.946808,36.565258
	C189.302032,36.340664 194.433029,38.717548 195.022095,32.091072
	C197.701813,32.028019 200.381531,31.964968 203.893097,31.900295
	C206.185989,31.314995 207.647034,30.731318 209.531281,30.116840
	C212.354660,29.441738 215.806488,31.624619 216.911377,27.498205
	C222.895752,27.491560 228.880127,27.484915 235.746262,27.522831
	C239.274643,27.522558 241.921265,27.477718 244.973236,27.555447
	C249.165482,28.465054 250.224731,26.439840 250.052429,23.144846
	C252.046951,23.095772 254.158066,23.447170 256.009949,22.908110
	C259.152100,21.993469 263.428802,25.709723 265.751709,20.254267
	C266.159912,19.295671 270.717072,20.283951 273.328735,20.047760
	C279.775024,19.464779 286.202789,18.678774 292.642151,18.014532
	C293.458221,17.930347 294.299103,18.086258 295.857971,18.480301
	C299.308136,18.837315 302.028839,18.844965 305.167664,18.898430
	C309.600616,19.493221 308.977661,16.640186 309.013947,14.270729
	C311.709930,14.213867 314.405914,14.157005 317.542542,14.579678
	C319.140961,19.692118 324.170319,20.743628 328.332886,17.113972
	C329.055359,17.064556 329.469971,17.059874 330.106201,17.366463
	C332.617706,17.959585 334.907593,18.241434 337.197510,18.523285
	C338.218750,18.580086 339.239990,18.636887 340.704712,19.106007
	C342.793701,19.958757 344.439178,20.399187 346.084656,20.839617
	C348.042877,22.517002 349.872650,24.385603 351.998352,25.813725
	C353.831848,27.045534 356.002228,27.775921 358.076874,28.485697
	C361.301117,30.958361 363.039642,35.301113 368.266174,36.672836
	C368.290955,40.657253 370.376862,41.269001 373.265961,40.942772
	C374.311859,43.544384 375.355103,46.147060 376.404755,48.747158
	C376.975800,50.161789 377.557770,51.572010 378.149414,53.770065
	C377.572662,58.373520 380.328644,57.956181 382.643707,58.096718
	C382.713898,59.786831 382.784088,61.476944 382.604218,63.819374
	C382.589020,66.651726 382.823883,68.831757 383.058746,71.011787
	C382.993744,72.397194 382.928741,73.782600 382.913605,75.922523
	C383.606415,77.112450 384.249359,77.547867 384.892303,77.983276
	C387.242096,81.388657 389.591888,84.794029 391.911011,88.934036
	C393.304871,91.108299 394.729401,92.547943 396.153931,93.987595
	C396.258057,99.258743 396.362152,104.529884 396.135925,110.425255
	C392.633270,111.339706 391.430756,113.040131 392.168518,116.129654
	C391.462280,118.102524 390.756042,120.075394 389.705292,123.010666
	C389.648712,122.944649 390.450226,123.880264 391.603821,125.358719
	C390.942871,129.982819 394.779663,129.060593 396.507874,130.313751
	C395.915192,133.578293 397.626526,134.441391 399.447540,134.104019
	C401.379486,137.391769 403.089874,140.153595 404.632385,143.006210
	C405.192505,144.041977 405.627045,145.289703 405.647339,146.448975
	C405.749237,152.267258 405.694946,158.088257 405.314484,164.396545
	C401.279510,167.933548 399.682465,171.505035 402.085175,176.092926
M321.924377,77.939827
	C321.924377,77.939827 321.998840,78.009598 321.231110,77.952881
	C320.205170,77.931015 319.179199,77.909149 317.775177,77.242157
	C316.435181,76.846581 315.095184,76.450996 313.980560,75.170258
	C314.692047,71.134880 315.403564,67.099503 316.876099,62.970932
	C318.635132,59.473125 321.891296,59.921593 325.276398,60.619743
	C328.175385,63.932472 335.465088,64.043030 338.880127,60.896545
	C342.952087,61.520111 347.024048,62.143677 351.958954,62.881672
	C354.281189,62.862255 356.603455,62.842842 359.672638,63.055702
	C360.209564,62.569504 361.274719,61.969440 361.198425,61.615425
	C360.668152,59.155289 359.900818,56.746250 359.143951,54.090721
	C357.838776,54.090721 356.398407,54.090721 354.411987,53.863380
	C353.897675,53.274815 353.383362,52.686253 353.130829,51.456875
	C353.655914,50.977402 354.181000,50.497925 354.805908,49.927292
	C353.269531,49.254059 351.210175,48.816677 351.178497,48.263184
	C350.952484,44.316471 348.296600,45.033817 345.877960,45.088890
	C345.877960,45.088890 345.935883,45.074722 345.941895,44.254223
	C346.405884,40.111809 343.416809,41.015057 340.320587,40.821869
	C338.506348,40.249687 336.692078,39.677505 335.175629,38.434547
	C335.715393,37.854752 336.255127,37.274956 337.458710,35.982056
	C334.885468,36.150242 333.319489,36.252594 330.884583,36.311134
	C328.254150,36.223392 325.623688,36.135654 322.984131,35.197845
	C321.919189,34.137497 320.942078,32.293827 319.772949,32.162720
	C316.172119,31.758905 312.487976,32.174328 308.855133,31.956362
	C305.696442,31.766840 304.647522,33.134480 304.209320,36.266769
	C302.840515,36.354233 301.471680,36.441696 299.234467,36.282135
	C296.580139,36.401707 293.925842,36.521278 290.492523,36.423775
	C288.888611,36.398266 287.284698,36.372757 284.724274,36.131134
	C281.265198,36.250935 276.551697,34.309250 276.114685,40.988884
	C271.761597,41.359921 267.408539,41.730961 262.292664,41.889290
	C260.311676,41.879601 258.111420,41.319340 256.405029,41.999035
	C254.253082,42.856209 250.500198,40.580906 249.100098,45.136002
	C245.780457,45.193527 242.460831,45.251053 238.376373,45.026115
	C237.572754,45.100502 236.769119,45.174889 235.074173,45.175205
	C232.401672,45.254520 229.729172,45.333836 226.298187,45.274586
	C223.751556,46.394566 221.204941,47.514545 217.819275,48.896458
	C211.553375,49.621685 205.287460,50.346909 198.884354,50.317017
	C194.656616,48.082912 194.222702,48.392159 193.210526,53.971748
	C192.151794,54.027142 191.093048,54.082535 189.207932,53.982948
	C186.023285,53.956245 182.515076,53.360317 181.181213,58.134911
	C178.272507,58.425446 175.300217,58.436684 172.471939,59.080502
	C169.270386,59.809284 166.198013,61.105518 162.350143,62.216587
	C158.174438,65.581955 153.631180,68.542305 150.012222,73.522461
	C149.649094,74.312393 149.285980,75.102318 148.138474,76.072464
	C144.117798,75.349228 144.239288,78.401886 143.091904,81.160713
	C142.042389,82.765053 140.992859,84.369400 139.824020,86.667641
	C139.829788,87.371498 139.835571,88.075356 139.081741,89.047760
	C133.908615,90.427437 132.800400,95.428032 130.015381,99.847137
	C130.189209,100.618118 130.363037,101.389099 129.804718,102.145737
	C128.900742,102.442818 127.996750,102.739891 126.205574,103.016075
	C124.612160,103.119736 123.018745,103.223396 121.020363,103.353401
	C121.020363,110.806816 120.722023,117.799118 121.250458,124.728363
	C121.368309,126.273712 124.391823,127.597473 125.963188,129.941620
	C125.977081,132.436951 125.727531,134.970505 126.082321,137.416397
	C126.407661,139.659256 127.385048,141.807556 128.007599,144.850250
	C128.032471,146.560257 128.057358,148.270279 127.430862,150.401108
	C124.484085,156.737869 125.431900,160.410172 130.411514,161.969360
	C130.533432,164.296829 130.655350,166.624283 130.475342,169.595795
	C130.533875,173.743683 130.592422,177.891556 130.180603,182.660065
	C130.825882,186.268860 127.665375,191.835236 135.081924,192.817459
	C135.265015,193.750839 135.166519,195.284256 135.675537,195.523132
	C139.925766,197.517670 144.287766,199.274017 148.859802,201.205185
	C149.347549,204.289978 156.884232,209.049286 162.377380,209.700348
	C162.253098,214.935135 167.469788,213.900345 170.176682,216.718384
	C171.437607,217.923050 172.698517,219.127731 173.857864,221.069916
	C176.262115,223.011230 175.831665,228.275970 181.224442,227.743301
	C182.431183,228.942535 184.613708,230.105972 184.659256,231.347809
	C184.788940,234.883194 186.987503,236.929123 188.810410,239.422272
	C189.664703,240.590698 189.688812,242.366135 189.952301,244.704971
	C191.303726,246.702957 193.522903,248.583405 193.813004,250.725143
	C194.307602,254.376541 196.230087,254.389557 199.105820,254.834656
	C201.086212,259.541016 203.066589,264.247345 204.807449,269.719116
	C203.613373,273.044739 202.555069,276.294403 208.436981,276.505096
	C208.497223,278.017853 208.557465,279.530640 208.143021,281.524902
	C208.718842,282.712341 209.294678,283.899750 209.993103,285.913513
	C211.048065,291.258636 212.103012,296.603790 212.999893,302.836334
	C213.375748,306.184906 213.751617,309.533447 213.986694,313.675232
	C212.437775,318.104614 212.453094,322.000183 217.668304,325.062958
	C217.824387,329.700745 217.980484,334.338501 217.563995,339.268127
	C217.699493,340.028229 217.834991,340.788330 217.970490,341.548431
	C218.322021,340.966309 218.673538,340.384155 219.602585,340.058594
	C220.383789,340.744690 221.164978,341.430817 222.048538,342.928772
	C221.607239,347.274963 224.450439,347.029785 228.082047,346.693634
	C229.059387,346.766998 230.036728,346.840363 231.148621,347.642120
	C239.122437,352.493500 239.865616,352.458191 244.813126,346.844788
	C246.458588,346.736725 248.104050,346.628662 250.547104,346.696106
	C255.800034,347.582520 254.065826,343.325867 255.036575,340.214600
	C256.044830,339.491852 257.053101,338.769104 258.870178,337.829987
	C260.267822,337.725769 261.665497,337.621552 263.482452,337.486053
	C263.482452,335.708557 263.482452,334.160095 263.493896,331.880615
	C263.589417,330.919556 263.684937,329.958527 264.489410,328.965546
	C264.726318,327.648285 264.963226,326.331055 265.054047,324.220551
	C265.272797,323.183533 265.346680,322.087097 265.742157,321.122559
	C266.445343,319.407562 267.343384,317.772491 268.922302,315.903290
	C275.392090,314.947937 272.472046,310.200928 272.671509,305.803589
	C272.768829,300.200043 272.866150,294.596497 273.803070,288.989258
	C274.859222,288.117432 276.565247,287.407471 276.831360,286.338928
	C277.329834,284.337311 276.994293,282.128021 277.029114,279.080109
	C276.432007,274.336243 278.739044,269.155609 274.684875,264.206970
	C274.068634,262.181335 273.452362,260.155701 273.019165,257.231812
	C272.902496,254.622330 272.785858,252.012848 272.665222,249.314880
	C270.859863,249.146988 269.546295,249.024841 268.104004,248.027191
	C268.015045,245.375229 267.926086,242.723251 268.009033,239.150223
	C268.019653,235.110809 268.030243,231.071381 268.056702,227.098297
	C268.056702,227.098297 268.124847,227.096085 268.928558,227.007843
	C270.213531,226.194641 271.488800,225.365540 272.786407,224.573090
	C273.916473,223.882980 275.071777,223.234222 277.069916,222.551056
	C280.052307,222.405258 283.034729,222.259460 286.911316,222.412903
	C297.278381,222.554947 307.645416,222.696976 318.017914,223.671341
	C319.144440,224.774841 320.106812,226.477219 321.435913,226.841476
	C323.427948,227.387436 325.692505,226.835464 327.813965,227.036804
	C331.034912,227.342499 332.460327,226.092163 332.890228,222.560364
	C337.269348,222.407654 341.648438,222.254959 346.497559,222.706024
	C350.068634,222.552795 354.640717,224.280411 355.921295,218.020477
	C358.606293,217.965073 361.291260,217.909668 364.828735,218.007751
	C369.397552,219.115295 371.215668,215.106918 374.941925,213.000565
	C376.861938,213.187317 378.402679,213.083435 378.112671,210.392639
	C377.926758,208.667831 378.179016,206.895828 379.059601,205.114685
	C383.261261,205.683151 383.036957,202.687180 382.930756,200.072632
	C382.846771,198.004440 384.632690,194.695496 380.008911,194.121902
	C380.040710,189.045944 376.837097,186.299271 372.465393,183.535141
	C369.643524,183.352158 366.821686,183.169159 363.243500,182.729706
	C361.914307,182.703506 360.585083,182.677307 359.047333,181.939087
	C354.673035,180.685272 350.298706,179.431458 345.038605,178.075195
	C341.042145,178.766449 337.045715,179.457718 332.571869,179.943359
	C332.407440,179.888718 332.243011,179.834091 331.870148,178.991882
	C327.465881,178.764435 323.061615,178.537003 318.298706,178.200363
	C318.298706,178.200363 318.002930,177.969986 317.999634,177.170868
	C318.303741,173.252136 315.902649,172.742065 312.203735,172.681213
	C312.202179,171.459351 312.200623,170.237488 313.051025,169.010437
	C316.753143,169.335785 320.036804,169.172791 319.243134,163.389374
	C319.829071,163.281021 320.414978,163.172653 321.374084,163.759064
	C325.431458,165.260696 329.490082,166.775375 333.652008,162.805237
	C334.514099,161.979675 335.376190,161.154114 337.133575,160.330597
	C341.342194,160.327744 345.550781,160.324875 349.965057,161.047256
	C353.337921,161.651657 356.710785,162.256058 360.781464,163.179291
	C363.533966,163.703659 366.286469,164.228027 369.816254,164.913559
	C370.871338,164.964615 371.926422,165.015671 373.300140,165.790298
	C374.874176,165.814957 376.448181,165.839630 378.739746,166.052917
	C381.441406,166.003387 385.578278,167.921616 384.824219,161.868774
	C388.935547,157.370361 388.197784,153.359375 381.772766,146.265747
	C377.746521,142.932114 373.118164,140.054184 372.543152,133.905365
	C371.431000,133.905365 370.300293,133.905365 369.048370,133.091248
	C368.618774,131.834061 368.563354,129.972000 367.690186,129.431778
	C364.946808,127.734489 361.895874,126.534363 358.080841,125.012726
	C354.665405,124.352188 351.249939,123.691650 348.418274,122.726959
	C349.075745,122.179733 349.733246,121.632515 351.537292,120.131012
	C348.636078,120.388939 347.137177,120.522202 344.758759,120.548477
	C337.243408,120.478706 329.728058,120.408943 321.426727,120.045357
	C320.595093,119.690262 319.061005,119.370148 319.041321,118.974617
	C318.859558,115.324615 316.091492,116.293373 313.872986,115.145096
	C314.078796,108.989647 318.265076,103.036919 323.019470,102.908310
	C331.678802,102.674080 340.441650,102.070007 348.986298,103.088493
	C356.141327,103.941322 363.046753,106.887833 369.927307,109.606422
	C369.948456,110.338989 369.969604,111.071556 369.990753,111.804123
	C371.102722,111.710190 372.847656,112.030670 373.224335,111.455345
	C375.746033,107.603485 380.455811,104.363686 377.252899,98.475586
	C376.239777,98.280769 374.963348,98.035332 373.519897,97.026390
	C373.379059,96.009918 373.238220,94.993446 373.584045,93.452690
	C374.569458,88.717415 371.577515,88.981697 367.759766,89.482689
	C366.822693,89.360695 365.885620,89.238708 365.002686,88.409470
	C364.938538,87.512657 364.874390,86.615845 364.765472,85.092987
	C363.554962,85.994125 362.759705,86.586151 361.261017,86.908600
	C358.448181,85.651062 355.635345,84.393524 352.944489,82.508476
	C353.431061,81.986122 353.917664,81.463776 354.404236,80.941422
	C354.274323,80.695961 354.144440,80.450493 354.014526,80.205032
	C353.003662,80.582550 351.992767,80.960068 350.190369,80.858017
	C347.148773,80.700157 344.107208,80.542305 341.056244,79.636131
	C341.403992,76.485382 339.767395,75.615692 336.048126,76.042572
	C332.038086,76.045334 328.028076,76.048103 323.387726,76.078201
	C322.917633,76.669693 322.447540,77.261192 321.924377,77.939827
M57.144753,99.000328
	C57.199921,100.367218 57.255085,101.734108 57.177345,104.004349
	C56.411140,109.327339 55.644936,114.650337 54.095688,120.024826
	C50.157635,122.143555 52.053551,125.132973 52.878464,128.907745
	C52.882450,135.285263 52.886436,141.662766 52.340233,148.607208
	C52.536263,151.629166 52.915920,154.653534 52.876457,157.672424
	C52.837341,160.664658 54.433731,161.231857 56.988808,161.955521
	C57.087624,169.254059 57.186440,176.552597 57.061222,184.735352
	C57.061222,186.946716 57.061222,189.158081 57.061222,191.504593
	C58.920006,191.833694 60.313026,192.080322 61.715759,193.212982
	C61.762222,195.357697 61.560089,197.545029 61.918430,199.636292
	C62.360863,202.218307 63.269264,204.720459 64.286011,207.904922
	C65.176590,209.748260 66.067169,211.591614 67.154449,213.842087
	C68.332367,213.767303 69.771904,213.675919 72.004189,213.719513
	C73.076973,213.757614 74.149750,213.795700 75.229462,214.503647
	C75.229462,215.345352 75.229462,216.187057 75.229462,218.357758
	C76.300545,216.608978 76.616180,216.093628 77.561043,216.060410
	C80.048889,216.660934 82.536736,217.261459 85.942184,217.969986
	C89.957031,218.036652 93.971870,218.103317 98.000481,218.966370
	C98.597717,219.956528 99.059097,221.672775 99.815132,221.814224
	C103.582611,222.519135 107.427559,222.810028 111.638771,223.291641
	C111.804672,221.057343 111.910568,219.631256 112.793388,218.063217
	C114.856033,217.314148 116.918678,216.565079 119.295013,216.391373
	C119.877037,216.675964 120.761894,217.357346 120.992409,217.181412
	C122.607903,215.948410 124.513962,214.796173 125.522377,213.130829
	C127.560036,209.765732 124.333641,209.241425 122.316467,208.145050
	C122.110245,208.032974 122.041374,207.548492 122.022385,207.230042
	C121.819061,203.819153 119.282532,204.102142 116.894783,203.193268
	C116.167076,200.832031 115.569107,198.419708 114.666214,196.127472
	C114.060852,194.590652 112.384407,193.264206 112.291115,191.774475
	C111.921463,185.871811 111.986610,179.941940 112.027451,173.091583
	C111.984428,167.409515 111.941406,161.727448 112.026283,155.147125
	C111.986832,152.447495 111.947380,149.747864 111.997444,146.146927
	C111.969032,143.440048 111.940620,140.733154 111.973900,137.087540
	C111.995842,128.127914 112.116112,119.166527 111.955200,110.210190
	C111.923729,108.458427 110.802269,106.726242 110.427834,104.272079
	C110.932487,100.840477 111.437149,97.408875 112.061897,93.164963
	C113.086693,91.461914 114.111481,89.758865 115.136276,88.055809
	C115.396484,88.190399 115.656700,88.324989 115.916908,88.459579
	C117.972290,84.340172 120.027672,80.220772 122.943459,76.177094
	C129.483597,74.742867 124.397194,70.362808 126.191055,67.094521
	C123.689499,67.241386 122.240540,67.326462 119.898521,67.292625
	C115.598213,67.200096 111.297913,67.107574 106.718185,66.284050
	C103.688683,65.301041 100.629456,64.400055 97.636856,63.315243
	C93.452995,61.798595 82.075478,64.502457 78.250504,68.240013
	C76.128166,69.230995 73.775955,69.908691 71.923698,71.267776
	C64.344444,76.829018 61.644531,84.736794 60.874146,93.896507
	C57.678970,93.651581 56.403778,95.019913 57.144753,99.000328
z"/>

<path fill="#FEFEFE" opacity="1.000000" stroke="none"
	d="
M218.136581,338.976288
	C217.980484,334.338501 217.824387,329.700745 217.764587,324.179901
	C217.817154,320.620911 217.773453,317.944946 217.850220,314.800964
	C217.970703,310.445099 217.970703,306.557251 217.970703,302.388641
	C215.999298,302.208527 214.578629,302.078735 213.157974,301.948914
	C212.103012,296.603790 211.048065,291.258636 210.058197,285.168182
	C209.621429,283.296356 209.119568,282.169891 208.617706,281.043396
	C208.557465,279.530640 208.497223,278.017853 208.332108,275.749695
	C207.566162,272.770691 209.057159,269.414062 205.046982,268.953705
	C203.066589,264.247345 201.086212,259.541016 198.916321,254.102234
	C197.010147,250.703156 195.293457,248.036514 193.072586,244.586700
	C192.874390,244.538849 191.481781,244.202667 190.089172,243.866470
	C189.688812,242.366135 189.664703,240.590698 188.810410,239.422272
	C186.987503,236.929123 184.788940,234.883194 184.659256,231.347809
	C184.613708,230.105972 182.431183,228.942535 181.119232,227.000427
	C182.023743,221.722046 176.345612,222.438705 175.560242,219.312958
	C175.026642,219.652771 174.493042,219.992584 173.959442,220.332397
	C172.698517,219.127731 171.437607,217.923050 170.199188,216.117111
	C170.707352,214.977448 171.193024,214.439072 171.711426,213.864426
	C169.934921,213.032654 167.538498,212.602356 167.343246,211.697189
	C166.575882,208.140060 164.061493,209.184586 161.926300,209.045212
	C156.884232,209.049286 149.347549,204.289978 148.859802,201.205185
	C144.287766,199.274017 139.925766,197.517670 135.675537,195.523132
	C135.166519,195.284256 135.265015,193.750839 135.111771,192.010010
	C134.415833,188.487167 133.690063,185.771805 133.199066,182.738220
	C133.950470,179.333282 134.494797,176.250854 134.976120,173.158630
	C135.485870,169.883789 133.903336,168.631180 130.777283,168.951752
	C130.655350,166.624283 130.533432,164.296829 130.475296,161.158401
	C130.116196,156.797867 131.989914,152.704041 128.082245,149.980286
	C128.057358,148.270279 128.032471,146.560257 128.419632,144.278366
	C129.311691,139.139359 129.791718,134.572235 130.519592,129.673889
	C130.690567,120.281792 130.613708,111.220940 130.536865,102.160080
	C130.363037,101.389099 130.189209,100.618118 130.494110,99.444328
	C135.208282,98.715401 139.758652,93.449898 139.841354,88.779213
	C139.835571,88.075356 139.829788,87.371498 140.271454,86.248497
	C144.376770,86.190208 145.144196,84.000496 145.390549,80.954773
	C149.957275,81.183403 148.916351,78.211761 148.922852,75.892250
	C149.285980,75.102318 149.649094,74.312393 150.609863,73.358429
	C155.050201,71.192726 158.892914,69.191048 163.069473,67.015457
	C163.069473,65.419518 163.069473,63.787266 163.069473,62.155018
	C166.198013,61.105518 169.270386,59.809284 172.471939,59.080502
	C175.300217,58.436684 178.272507,58.425446 181.844650,58.422070
	C184.763779,58.709229 187.019455,58.709229 189.571899,58.709229
	C189.744339,57.004635 189.889328,55.571285 190.034317,54.137932
	C191.093048,54.082535 192.151794,54.027142 193.962769,53.961983
	C196.150528,52.992191 197.586044,52.032158 199.021561,51.072128
	C205.287460,50.346909 211.553375,49.621685 218.628479,48.954483
	C221.946365,49.305458 224.455032,49.598412 227.404160,49.926350
	C230.903885,49.331253 233.963165,48.701164 237.305206,47.946838
	C238.105728,46.984596 238.623459,46.146587 239.141190,45.308582
	C242.460831,45.251053 245.780457,45.193527 249.818817,45.345085
	C253.430038,45.588448 256.338776,45.445045 259.210510,45.707153
	C262.061462,45.967365 262.803741,44.397945 263.055450,42.101997
	C267.408539,41.730961 271.761597,41.359921 276.964355,40.989162
	C279.478394,40.896610 281.142731,40.803780 283.234619,40.865753
	C286.055359,40.963276 288.448547,40.905994 291.295959,40.906532
	C294.870514,40.118938 300.314545,43.649635 300.102875,36.529160
	C301.471680,36.441696 302.840515,36.354233 305.061462,36.276855
	C311.606812,36.207272 317.300018,36.127594 322.993256,36.047916
	C325.623688,36.135654 328.254150,36.223392 331.340088,36.630257
	C332.351349,37.904663 332.907074,38.859951 333.374115,39.662773
	C333.783081,39.511158 334.330475,39.308239 334.877838,39.105316
	C336.692078,39.677505 338.506348,40.249687 340.769531,41.288284
	C340.713928,45.812611 343.401184,45.335300 345.935883,45.074722
	C345.935883,45.074722 345.877960,45.088890 345.902679,45.512352
	C346.588226,47.164955 346.977600,48.725269 347.975464,49.543285
	C349.368500,50.685276 351.216034,51.272865 352.869080,52.097687
	C353.383362,52.686253 353.897675,53.274815 354.723114,54.379745
	C355.647186,56.189232 356.245972,57.489292 356.876923,58.773582
	C357.543915,60.131355 358.241486,61.474106 358.925690,62.823425
	C356.603455,62.842842 354.281189,62.862255 351.507690,62.415390
	C350.153503,60.700691 349.342194,58.473381 348.331268,58.378761
	C344.593842,58.028954 340.790466,58.383610 336.574097,58.624584
	C332.414001,59.150665 328.691650,59.525642 324.969330,59.900623
	C321.891296,59.921593 318.635132,59.473125 316.098328,62.996025
	C311.278534,62.627377 309.617218,65.364944 309.148743,68.534660
	C308.641235,71.968498 309.976074,74.924149 313.755188,76.055412
	C315.095184,76.450996 316.435181,76.846581 317.938721,77.980438
	C318.553467,82.734222 321.324860,80.441116 323.647614,80.638626
	C328.400269,80.586769 332.702484,80.488815 337.396759,80.530128
	C338.881073,80.574409 339.973328,80.479431 341.065613,80.384453
	C344.107208,80.542305 347.148773,80.700157 350.585846,81.385483
	C351.595062,82.320625 352.208771,82.728310 352.822510,83.135986
	C355.635345,84.393524 358.448181,85.651062 361.697754,87.367615
	C363.072479,88.256668 364.010529,88.686691 364.948547,89.116714
	C365.885620,89.238708 366.822693,89.360695 368.242340,89.827751
	C368.875824,91.368820 369.026764,92.564835 369.204987,93.976974
	C370.630432,93.976974 371.863892,93.976974 373.097382,93.976974
	C373.238220,94.993446 373.379059,96.009918 373.473267,97.849701
	C372.944519,102.294533 375.133667,106.794075 370.062714,108.907272
	C363.046753,106.887833 356.141327,103.941322 348.986298,103.088493
	C340.441650,102.070007 331.678802,102.674080 323.019470,102.908310
	C318.265076,103.036919 314.078796,108.989647 313.886047,115.964020
	C313.496948,122.044998 318.630890,120.850449 321.166626,123.246613
	C322.004547,124.051620 322.674408,124.851898 323.356781,124.862671
	C330.632568,124.977516 337.910950,125.011833 345.186432,124.910889
	C345.801453,124.902351 346.400726,123.758415 347.215332,123.123627
	C347.423401,123.105293 347.834503,123.031113 347.834503,123.031113
	C351.249939,123.691650 354.665405,124.352188 358.555969,125.467232
	C359.827820,129.660339 365.111023,133.820648 369.169586,133.905365
	C370.300293,133.905365 371.431000,133.905365 372.543152,133.905365
	C373.118164,140.054184 377.746521,142.932114 381.908447,147.015289
	C382.729736,152.557434 383.415405,157.350006 384.101074,162.142593
	C385.578278,167.921616 381.441406,166.003387 378.305542,165.609375
	C376.241364,165.132812 374.611450,165.099777 372.981506,165.066742
	C371.926422,165.015671 370.871338,164.964615 369.424744,164.419403
	C369.329315,161.046936 368.184235,159.677414 365.154236,159.996704
	C363.385742,160.183044 361.589203,160.103607 359.358582,160.120148
	C355.861053,160.171707 352.810211,160.246872 349.759399,160.322021
	C345.550781,160.324875 341.342194,160.327744 336.268311,160.160141
	C334.218201,160.081451 333.033417,160.173218 331.409973,160.255280
	C328.069641,160.349289 325.167938,160.453018 321.844238,160.371216
	C319.069092,160.296417 316.715973,160.407150 314.281158,160.521729
	C314.116333,162.293564 313.998016,163.565323 313.624634,164.940399
	C312.967072,165.410080 312.564575,165.776428 311.795135,166.183441
	C310.649139,166.675201 309.224548,167.088013 309.195160,167.583572
	C308.995819,170.944473 309.091034,174.322845 309.091034,177.826050
	C311.023132,177.993774 312.307220,178.105255 313.693390,178.615540
	C313.432556,183.509048 316.342163,183.056000 319.673309,182.645630
	C322.980682,182.632065 325.857208,182.589890 329.120850,182.720078
	C330.631378,182.866455 331.754761,182.840469 333.348145,182.895264
	C337.991394,182.772583 342.164673,182.569107 346.769897,182.459412
	C351.219879,182.585815 355.237885,182.618454 359.255890,182.651093
	C360.585083,182.677307 361.914307,182.703506 363.711304,183.229523
	C367.059723,183.865402 369.940308,184.001480 372.820923,184.137558
	C376.837097,186.299271 380.040710,189.045944 379.958923,194.886932
	C379.350922,198.816299 378.792877,201.980637 378.234863,205.144974
	C378.179016,206.895828 377.926758,208.667831 378.112671,210.392639
	C378.402679,213.083435 376.861938,213.187317 374.074646,212.983795
	C369.749512,213.876740 364.452362,211.312454 363.976257,217.854263
	C361.291260,217.909668 358.606293,217.965073 355.061279,218.010895
	C350.806854,218.033249 347.011597,217.266251 346.027557,222.102264
	C341.648438,222.254959 337.269348,222.407654 332.135803,222.554413
	C326.925079,222.645325 322.468781,222.742157 318.012482,222.839005
	C307.645416,222.696976 297.278381,222.554947 286.477875,221.833862
	C284.938263,217.194046 279.001740,216.540558 274.637787,220.179840
	C272.424683,221.287994 270.573212,222.255264 268.124847,223.534393
	C268.124847,224.274307 268.124847,225.685196 268.124847,227.096085
	C268.124847,227.096085 268.056702,227.098297 267.654053,227.124786
	C262.003174,228.067413 263.831787,232.451187 263.211548,235.563263
	C262.476532,239.251312 264.142456,240.776505 267.837128,240.071289
	C267.926086,242.723251 268.015045,245.375229 268.084290,248.870117
	C268.758026,252.439636 269.451477,255.166229 270.052429,258.280945
	C270.892029,261.438843 271.824127,264.208588 272.744141,267.442810
	C272.819061,271.937714 272.906036,275.968170 272.889282,280.439240
	C272.844818,283.584229 272.904114,286.288574 272.963440,288.992950
	C272.866150,294.596497 272.768829,300.200043 272.307190,306.315063
	C268.293518,308.945129 267.424835,312.197571 268.159912,316.103973
	C267.343384,317.772491 266.445343,319.407562 265.742157,321.122559
	C265.346680,322.087097 265.272797,323.183533 264.790497,324.699097
	C264.278107,326.450897 264.029266,327.724182 263.780457,328.997467
	C263.684937,329.958527 263.589417,330.919556 263.120270,332.360779
	C258.642609,332.287842 258.731903,335.509064 258.061340,338.046387
	C257.053101,338.769104 256.044830,339.491852 254.577484,340.687958
	C252.826630,341.676849 251.534836,342.192352 250.101105,342.764526
	C249.988251,343.970184 249.868866,345.245361 249.749512,346.520569
	C248.104050,346.628662 246.458588,346.736725 244.151093,346.613403
	C239.330719,346.559204 235.172394,346.736450 231.014069,346.913696
	C230.036728,346.840363 229.059387,346.766998 227.611115,346.312073
	C227.415482,341.926270 225.056030,341.510559 221.946167,342.116913
	C221.164978,341.430817 220.383789,340.744690 219.296967,339.684143
	C218.794556,338.972626 218.509644,338.861481 218.136581,338.976288
z"/>
<path fill="#B74F5F" opacity="1.000000" stroke="none"
	d="
M75.222534,213.833801
	C74.149750,213.795700 73.076973,213.757614 71.543533,213.275818
	C69.324219,210.498642 67.565559,208.165146 65.806885,205.831665
	C65.196693,206.306808 64.586502,206.781967 63.976318,207.257111
	C63.269264,204.720459 62.360863,202.218307 61.918430,199.636292
	C61.560089,197.545029 61.762222,195.357697 61.708672,192.374817
	C60.499283,188.819778 61.687489,184.729233 57.285259,183.851135
	C57.186440,176.552597 57.087624,169.254059 57.004082,161.079071
	C56.317104,156.502747 55.614849,152.802887 55.149078,148.779816
	C55.896202,147.830185 56.835381,147.213867 56.850407,146.575790
	C56.983398,140.928436 57.039238,135.274750 56.880707,129.629608
	C56.855606,128.735764 55.645317,127.875183 54.990471,126.559807
	C54.958210,124.071373 54.918472,122.022346 54.878731,119.973328
	C55.644936,114.650337 56.411140,109.327339 57.643444,103.538101
	C62.523018,103.615654 62.137615,100.704208 61.881371,97.463196
	C61.822559,95.978966 61.738857,94.899384 61.655159,93.819794
	C61.644531,84.736794 64.344444,76.829018 71.923698,71.267776
	C73.775955,69.908691 76.128166,69.230995 79.033142,68.089355
	C87.660057,67.938774 95.504738,67.978355 103.348175,67.897621
	C104.567551,67.885071 105.781273,67.322998 106.997604,67.015045
	C111.297913,67.107574 115.598213,67.200096 120.414597,67.734482
	C121.314796,70.818016 121.698929,73.459694 122.083054,76.101372
	C120.027672,80.220772 117.972290,84.340172 115.916908,88.459579
	C115.656700,88.324989 115.396484,88.190399 115.136276,88.055809
	C114.111481,89.758865 113.086693,91.461914 111.589478,93.592728
	C110.222397,94.295639 108.572548,94.516273 108.548149,94.854240
	C108.256302,98.897736 108.205757,102.958656 108.020889,107.478226
	C107.950035,117.964249 107.950371,127.987068 107.907791,138.458008
	C107.901840,141.609009 107.938812,144.311890 107.946884,147.462769
	C107.944328,150.608612 107.970673,153.306458 107.990036,156.472107
	C107.986732,161.339142 108.145470,165.745590 107.940689,170.135086
	C107.799278,173.166351 108.972580,174.351425 111.890579,174.022141
	C111.986610,179.941940 111.921463,185.871811 112.291115,191.774475
	C112.384407,193.264206 114.060852,194.590652 114.666214,196.127472
	C115.569107,198.419708 116.167076,200.832031 116.903534,203.971268
	C118.907761,208.194046 124.065834,211.047562 118.981323,215.816025
	C116.918678,216.565079 114.856033,217.314148 111.943268,218.067291
	C106.724335,218.104248 102.355530,218.137115 97.986717,218.169983
	C93.971870,218.103317 89.957031,218.036652 85.424454,217.561188
	C83.132683,212.919952 79.889664,212.414978 75.782303,213.681183
	C75.595810,213.732391 75.222534,213.833801 75.222534,213.833801
z"/>
</svg>